<?xml version="1.0" standalone="no"?>
<!DOCTYPE svg PUBLIC "-//W3C//DTD SVG 20010904//EN"
 "http://www.w3.org/TR/2001/REC-SVG-20010904/DTD/svg10.dtd">
<svg version="1.0" xmlns="http://www.w3.org/2000/svg"
 width="700.000000pt" height="700.000000pt" viewBox="0 0 700.000000 700.000000"
 preserveAspectRatio="xMidYMid meet">
<metadata>
Created by potrace 1.14, written by Peter Selinger 2001-2017
</metadata>
<g transform="translate(0.000000,700.000000) scale(0.100000,-0.100000)"
fill="#000000" stroke="none">
<path d="M1256 6989 c-229 -24 -444 -102 -638 -231 -112 -75 -291 -251 -366
-360 -109 -160 -192 -362 -230 -561 -16 -86 -17 -243 -17 -2337 0 -2094 1
-2251 17 -2337 38 -199 121 -401 230 -561 67 -98 251 -282 348 -349 154 -104
361 -191 550 -229 79 -17 242 -18 2265 -22 2262 -3 2334 -2 2502 38 170 41
338 115 481 212 99 67 283 251 350 350 109 160 192 362 230 561 16 86 17 243
17 2337 0 2495 5 2305 -66 2527 -71 220 -176 391 -343 559 -239 238 -517 370
-855 404 -125 12 -4355 12 -4475 -1z m3446 -1282 c66 -32 141 -110 170 -175
47 -105 31 -257 -36 -344 l-33 -44 553 -1105 553 -1104 0 1333 1 1332 40 0 40
0 0 -1398 0 -1399 58 -16 c149 -41 252 -179 252 -337 0 -158 -103 -296 -252
-337 l-58 -16 0 -349 0 -348 -40 0 -40 0 0 348 0 349 -57 16 c-199 55 -306
277 -228 472 l26 63 -530 1059 -530 1058 0 -1682 -1 -1683 -40 0 -40 0 -1
1578 -1 1577 -397 -1190 -398 -1190 44 -48 c70 -75 88 -124 88 -237 0 -112
-18 -161 -86 -235 -51 -55 -106 -89 -171 -106 l-48 -11 0 -69 0 -69 -40 0 -40
0 0 69 0 69 -47 11 c-66 17 -121 51 -172 106 -60 65 -84 124 -89 220 -5 101
19 172 85 245 l46 51 -394 1052 -394 1051 -3 -1437 -2 -1437 -40 0 -40 0 -2
1556 -3 1557 -518 -777 -517 -777 16 -56 c21 -72 15 -180 -13 -245 -42 -92
-138 -174 -235 -199 l-48 -11 0 -524 0 -524 -40 0 -40 0 0 524 0 524 -47 11
c-98 25 -194 106 -236 199 -32 73 -35 191 -6 267 31 82 121 173 202 203 32 12
64 22 72 22 13 0 15 157 15 1225 l0 1225 40 0 40 0 2 -1206 3 -1207 528 793
529 792 -23 52 c-34 78 -37 194 -8 271 31 82 121 173 202 203 32 12 64 22 72
22 13 0 15 24 15 140 l0 140 40 0 40 0 0 -139 0 -139 48 -11 c65 -17 120 -51
171 -106 56 -60 83 -124 89 -206 6 -86 -12 -158 -54 -221 -19 -27 -34 -53 -34
-57 0 -3 167 -453 372 -1000 l373 -995 3 1437 2 1437 40 0 40 0 1 -1402 1
-1403 388 1164 389 1164 -35 40 c-54 59 -77 119 -82 212 -6 113 20 179 102
261 83 82 141 105 257 101 69 -2 97 -8 141 -30z"/>
<path d="M4498 5591 c-134 -43 -193 -187 -125 -303 80 -137 274 -137 354 0 75
128 -9 291 -158 307 -24 2 -56 0 -71 -4z"/>
<path d="M2398 5171 c-134 -43 -193 -187 -125 -303 80 -137 274 -137 354 0 75
128 -9 291 -158 307 -24 2 -56 0 -71 -4z"/>
<path d="M998 3001 c-134 -43 -193 -187 -125 -303 80 -137 274 -137 354 0 75
128 -9 291 -158 307 -24 2 -56 0 -71 -4z"/>
<path d="M5898 2651 c-134 -43 -193 -187 -125 -303 80 -137 274 -137 354 0 75
128 -9 291 -158 307 -24 2 -56 0 -71 -4z"/>
<path d="M3448 2091 c-134 -43 -193 -187 -125 -303 80 -137 274 -137 354 0 75
128 -9 291 -158 307 -24 2 -56 0 -71 -4z"/>
</g>
</svg>
