<svg xmlns="http://www.w3.org/2000/svg" viewBox="0 0 100 100">
  <rect x="0" y="0" width="100" height="100" rx="20" ry="20" fill="#4a90e2"/>
  
  <!-- Faint Xs and Os in the background -->
  <g opacity="0.1" fill="none" stroke="#ffffff" stroke-width="1">
    <!-- Xs -->
    <path d="M10 30 L20 40 M20 30 L10 40"/>
    <path d="M80 60 L90 70 M90 60 L80 70"/>
    <path d="M40 80 L50 90 M50 80 L40 90"/>
    <!-- Os -->
    <circle cx="70" cy="40" r="5"/>
    <circle cx="30" cy="70" r="5"/>
    <circle cx="50" cy="20" r="5"/>
  </g>
  
  <path d="M15 80 L15 20 M35 80 L35 20 M50 80 L50 20 M65 80 L65 20 M85 80 L85 20" stroke="#ffffff" stroke-width="1" opacity="0.5"/>
  <path d="M15 60 L35 30 L50 70 L65 25 L85 65" stroke="#ffffff" stroke-width="5" fill="none" stroke-linecap="round"/>
  <circle cx="15" cy="60" r="4" fill="#4a90e2" stroke="#ffffff" stroke-width="2"/>
  <circle cx="35" cy="29" r="4" fill="#4a90e2" stroke="#ffffff" stroke-width="2"/>
  <circle cx="50" cy="73" r="4" fill="#4a90e2" stroke="#ffffff" stroke-width="2"/>
  <circle cx="65" cy="23" r="4" fill="#4a90e2" stroke="#ffffff" stroke-width="2"/>
  <circle cx="85" cy="65" r="4" fill="#4a90e2" stroke="#ffffff" stroke-width="2"/>
</svg>